<mxfile host="app.diagrams.net" modified="2023-07-13T03:36:05.350Z" agent="Mozilla/5.0 (Windows NT 10.0; Win64; x64) AppleWebKit/537.36 (KHTML, like Gecko) Chrome/114.0.0.0 Safari/537.36 Edg/114.0.1823.67" version="21.5.0" etag="CsPrCnT5woSfw9mKa_Hp" type="github">
  <diagram name="第 1 页" id="Y4v2M5byp6E2mBQStGtV">
    <mxGraphModel>
      <root>
        <mxCell id="0" />
        <mxCell id="1" parent="0" />
      </root>
    </mxGraphModel>
  </diagram>
</mxfile>
